<svg width="160" height="160" viewBox="0 0 160 160" fill="none" xmlns="http://www.w3.org/2000/svg">
<path d="M80.5 136C111.704 136 137 110.928 137 80C137 49.072 111.704 24 80.5 24C49.2959 24 24 49.072 24 80C24 110.928 49.2959 136 80.5 136Z" fill="url(#paint0_linear)"/>
<path fill-rule="evenodd" clip-rule="evenodd" d="M106.084 52.6706C108.038 53.9147 108.588 56.4683 107.313 58.3743L76.0323 105.131C75.2547 106.294 73.9299 106.996 72.5074 107C71.085 107.004 69.7559 106.309 68.9715 105.151L53.7007 82.6121C52.4143 80.7134 52.9491 78.1567 54.8951 76.9015C56.8412 75.6464 59.4616 76.1681 60.748 78.0669L72.4728 95.3724L100.238 53.8691C101.514 51.9631 104.131 51.4265 106.084 52.6706Z" fill="#193460"/>
<defs>
<linearGradient id="paint0_linear" x1="35.153" y1="17.3967" x2="71.3308" y2="115.606" gradientUnits="userSpaceOnUse">
<stop stop-color="#D1D6DF"/>
<stop offset="1" stop-color="#D4C3E3"/>
</linearGradient>
</defs>
</svg>
